<svg xmlns="http://www.w3.org/2000/svg" viewBox="0 0 32 32" width="32" height="32" shape-rendering="crispEdges">
  <circle cx="16" cy="16" r="15.5" fill="#0a0717" stroke="#2d1f4f" stroke-width="1"/>
  <g fill="#b794f6">
    <rect x="8" y="5" width="1" height="1"/>
    <rect x="7" y="6" width="3" height="1"/>
    <rect x="7" y="7" width="4" height="1"/>
    <rect x="6" y="8" width="5" height="1"/>
    <rect x="6" y="9" width="6" height="1"/>
    <rect x="23" y="5" width="1" height="1"/>
    <rect x="22" y="6" width="3" height="1"/>
    <rect x="21" y="7" width="4" height="1"/>
    <rect x="21" y="8" width="5" height="1"/>
    <rect x="20" y="9" width="6" height="1"/>
    <rect x="6" y="10" width="20" height="1"/>
    <rect x="5" y="11" width="22" height="10"/>
    <rect x="6" y="21" width="20" height="1"/>
    <rect x="7" y="22" width="18" height="1"/>
    <rect x="9" y="23" width="14" height="1"/>
    <rect x="11" y="24" width="10" height="1"/>
  </g>
  <g fill="#ff6ec7">
    <rect x="8" y="7" width="1" height="2"/>
    <rect x="23" y="7" width="1" height="2"/>
  </g>
  <g fill="#6ee7ff">
    <rect x="10" y="13" width="3" height="2"/>
    <rect x="19" y="13" width="3" height="2"/>
  </g>
  <g fill="#0a0717">
    <rect x="11" y="14" width="1" height="1"/>
    <rect x="20" y="14" width="1" height="1"/>
  </g>
  <rect x="15" y="17" width="2" height="1" fill="#ff6ec7"/>
  <g fill="#0a0717">
    <rect x="15" y="19" width="1" height="1"/>
    <rect x="17" y="19" width="1" height="1"/>
    <rect x="16" y="20" width="1" height="1"/>
  </g>
</svg>
